<svg width="24" height="32" viewBox="0 0 24 32" fill="none" xmlns="http://www.w3.org/2000/svg">
<path d="M24 9.93392C24.0025 9.01096 23.6384 8.12541 22.9891 7.47479L16.5854 1.02261C15.9406 0.366708 15.0621 -0.0015746 14.1461 5.0608e-06H3.45026C1.54473 5.0608e-06 0 1.55728 0 3.47827V28.5217C0 29.4442 0.363508 30.3289 1.01056 30.9812C1.65761 31.6335 2.53519 32 3.45026 32H20.5497C22.4553 32 24 30.4427 24 28.5217V9.93392ZM22.6199 28.5217C22.6199 29.6743 21.693 30.6087 20.5497 30.6087H3.46406C2.32074 30.6087 1.3939 29.6743 1.3939 28.5217V3.47827C1.3939 2.32567 2.32074 1.39131 3.46406 1.39131H14.1599C14.7087 1.3918 15.2349 1.61199 15.6228 2.00348L22.0126 8.45913C22.401 8.85014 22.6194 9.38061 22.6199 9.93392V28.5217Z" fill="black"/>
<path d="M18.3992 14.9336H4.89505C4.53071 14.9336 4.23535 15.2455 4.23535 15.6302V27.037C4.23535 27.4217 4.53071 27.7336 4.89505 27.7336H18.3992C18.7635 27.7336 19.0589 27.4217 19.0589 27.037V15.6302C19.0589 15.2455 18.7635 14.9336 18.3992 14.9336ZM17.7395 21.9658H13.6031V16.3268H17.7395V21.9658ZM12.2837 16.3268V26.3404H9.75707V20.9452C9.75707 20.5605 9.46171 20.2486 9.09736 20.2486H5.55476V16.3268H12.2837ZM5.55476 21.6418H8.43766V26.3439H5.55476V21.6418ZM13.6064 26.3439V23.359H17.7395V26.3404L13.6064 26.3439Z" fill="black"/>
</svg>
